<?xml version="1.0" encoding="utf-8"?>
<svg version="1.1" xmlns="http://www.w3.org/2000/svg" xmlns:xlink="http://www.w3.org/1999/xlink" height="282.1685838527403" width="435.68410236659565">
  <defs>
    <ellipse id="ellipse-1" opacity="1" rx="25.50001289836446" ry="25.431034620791756" cx="319.48259260028595" cy="122.9137937163155"/>
    <ellipse id="ellipse-2" opacity="1" rx="29.580014962102766" ry="29.500000160118475" cx="321.5225936321553" cy="155.4655180309292"/>
    <rect id="rect-3" opacity="1" x="318.46259208435106" y="148.34482833710715" width="4.080002063738306" height="97.65517294384036" rx="0" ry="0"/>
    <rect id="rect-4" opacity="1" x="324.58259517995896" y="154.44827664609738" width="4.080002063738277" height="22.379310466296715" rx="0" ry="0"/>
    <ellipse id="ellipse-5" opacity="1" rx="23.460011866495286" ry="23.39655185112843" cx="127.72249560458545" cy="137.15517310395913"/>
    <ellipse id="ellipse-6" opacity="1" rx="26.520013414299026" ry="26.44827600562344" cx="128.74249612051997" cy="164.62069049441402"/>
    <rect id="rect-7" opacity="1" x="126.70249508865072" y="160.55172495508737" width="4.080002063738306" height="85.4482763258603" rx="0" ry="0"/>
    <rect id="rect-8" opacity="1" x="130.78249715238906" y="164.62069049441368" width="4.0800020637382985" height="20.344827696633445" rx="0" ry="0"/>
    <path id="path-9" opacity="1" fill-rule="evenodd" d="M183.82099344840844,246 C181.6217136632522,240.05404663085938 176.0550632726272,235.82757568359375 169.54255106559594,235.82757568359375 C163.02997782340844,235.82757568359375 157.4633884679397,240.05404663085938 155.26410868278344,246 L183.82099344840844,246Z"/>
    <path id="path-10" opacity="1" fill-rule="evenodd" d="M238.9025974523147,236.65237426757812 C238.9025974523147,219.35421752929688 224.7341404210647,205.31033325195312 207.28254129997094,205.31033325195312 C189.83100321403344,205.31033325195312 175.66254618278344,219.35421752929688 175.66254618278344,236.65237426757812 C175.66254618278344,239.90744018554688 176.16425516715844,243.04727172851562 177.0951023351272,246 L237.47004129997094,246 C238.4008884679397,243.04727172851562 238.9025974523147,239.90744018554688 238.9025974523147,236.65237426757812Z"/>
    <path id="path-11" opacity="1" fill-rule="evenodd" d="M269.5025730382522,243.2257080078125 C269.5025730382522,231.28253173828125 259.90461161247094,221.58621215820312 248.0825290929397,221.58621215820312 C236.2605076085647,221.58621215820312 226.66254618278344,231.28253173828125 226.66254618278344,243.2257080078125 C226.66254618278344,244.16558837890625 226.72199442497094,245.09158325195312 226.8372898351272,246 L269.32782938590844,246 C269.4431247960647,245.09158325195312 269.5025730382522,244.16558837890625 269.5025730382522,243.2257080078125Z"/>
    <rect id="rect-12" opacity="1" x="293.98407938590844" y="205.31033325195312" width="114.23846435546875" height="40.689666748046875"/>
    <path id="path-13" opacity="1" fill-rule="evenodd" d="M379.6656589757522,246 C381.86493876090844,240.05404663085938 387.43158915153344,235.82757568359375 393.9441013585647,235.82757568359375 C400.4566746007522,235.82757568359375 406.02326395622094,240.05404663085938 408.2225437413772,246 L379.6656589757522,246Z"/>
    <path id="path-14" opacity="1" fill-rule="evenodd" d="M324.58405497184594,236.65237426757812 C324.58405497184594,219.35421752929688 338.75251200309594,205.31033325195312 356.2041111241897,205.31033325195312 C373.6556492101272,205.31033325195312 387.8241062413772,219.35421752929688 387.8241062413772,236.65237426757812 C387.8241062413772,239.90744018554688 387.3223972570022,243.04727172851562 386.39155008903344,246 L326.0166111241897,246 C325.08576395622094,243.04727172851562 324.58405497184594,239.90744018554688 324.58405497184594,236.65237426757812Z"/>
    <path id="path-15" opacity="1" fill-rule="evenodd" d="M293.98407938590844,243.2257080078125 C293.98407938590844,231.28253173828125 303.58210184684594,221.58621215820312 315.40412333122094,221.58621215820312 C327.22614481559594,221.58621215820312 336.8241062413772,231.28253173828125 336.8241062413772,243.2257080078125 C336.8241062413772,244.16558837890625 336.7646579991897,245.09158325195312 336.64936258903344,246 L294.1588230382522,246 C294.04352762809594,245.09158325195312 293.98407938590844,244.16558837890625 293.98407938590844,243.2257080078125Z"/>
    <rect id="rect-16" opacity="1" x="51.222482706220944" y="205" width="114.23846435546875" height="40.689666748046875"/>
    <path id="path-17" opacity="1" fill-rule="evenodd" d="M136.9040622960647,245.68966674804688 C139.10334208122094,239.74371337890625 144.66999247184594,235.51724243164062 151.1825046788772,235.51724243164062 C157.6950779210647,235.51724243164062 163.26166727653344,239.74371337890625 165.4609470616897,245.68966674804688 L136.9040622960647,245.68966674804688Z"/>
    <path id="path-18" opacity="1" fill-rule="evenodd" d="M81.82245829215844,236.342041015625 C81.82245829215844,219.04388427734375 95.99091532340844,205 113.4425144445022,205 C130.8940525304397,205 145.0625095616897,219.04388427734375 145.0625095616897,236.342041015625 C145.0625095616897,239.59710693359375 144.5608005773147,242.7369384765625 143.62995340934594,245.68966674804688 L83.2550144445022,245.68966674804688 C82.32416727653344,242.7369384765625 81.82245829215844,239.59710693359375 81.82245829215844,236.342041015625Z"/>
    <path id="path-19" opacity="1" fill-rule="evenodd" d="M51.222482706220944,242.91537475585938 C51.222482706220944,230.97219848632812 60.820505167158444,221.27587890625 72.64252665153344,221.27587890625 C84.46454813590844,221.27587890625 94.0625095616897,230.97219848632812 94.0625095616897,242.91537475585938 C94.0625095616897,243.85525512695312 94.0030613195022,244.78125 93.88776590934594,245.68966674804688 L51.397226358564694,245.68966674804688 C51.281930948408444,244.78125 51.222482706220944,243.85525512695312 51.222482706220944,242.91537475585938Z"/>
    <ellipse id="ellipse-20" opacity="1" rx="35.7000180577102" ry="35.60344846910845" cx="227.68254616617392" cy="76.12069001405865"/>
    <ellipse id="ellipse-21" opacity="1" rx="40.80002063738313" ry="40.689655393266804" cx="228.70254668210873" cy="119.86206956182042"/>
    <rect id="rect-22" opacity="1" x="224.6225446183704" y="109.6896557135037" width="6.120003095607473" height="136.31034556744385" rx="0" ry="0"/>
    <rect id="rect-23" opacity="1" x="232.78254874584718" y="119.86206956182056" width="6.1200030956074585" height="30.517241544950124" rx="0" ry="0"/>
    <path id="path-24" opacity="1" fill-rule="evenodd" d="M257.2625611282767,184.96551819104718 C258.3884683477485,184.96551819104718 259.30256216014584,185.8796120034445 259.30256216014584,187.00551922291635 L259.30256216014584,243.9600002490783 C259.30256216014584,245.08590746855015 258.3884683477485,246.00000128094746 257.2625611282767,246.00000128094746 C256.1366539088048,246.00000128094746 255.2225600964075,245.08590746855015 255.2225600964075,243.9600002490783 L255.2225600964075,187.00551922291635 C255.2225600964075,185.8796120034445 256.1366539088048,184.96551819104718 257.2625611282767,184.96551819104718 L257.2625611282767,184.96551819104718Z"/>
    <path id="path-25" opacity="1" fill-rule="evenodd" d="M336.82260137117385,184.96551819104718 C337.9485085906457,184.96551819104718 338.862602403043,185.8796120034445 338.862602403043,187.00551922291632 L338.862602403043,243.96000024907832 C338.862602403043,245.08590746855015 337.9485085906457,246.00000128094746 336.82260137117385,246.00000128094746 C335.69669415170205,246.00000128094746 334.78260033930474,245.08590746855015 334.78260033930474,243.96000024907832 L334.78260033930474,187.00551922291632 C334.78260033930474,185.8796120034445 335.69669415170205,184.96551819104718 336.82260137117385,184.96551819104718 L336.82260137117385,184.96551819104718Z"/>
    <rect id="rect-26" opacity="1" x="255.2225600964075" y="213.44827696633365" width="79.56004024289713" height="10.17241384831675" rx="0" ry="0"/>
    <rect id="rect-27" opacity="1" x="255.2225600964075" y="191.0689665000374" width="79.56004024289713" height="18.310344926970004" rx="0" ry="0"/>
    <path id="path-28" opacity="1" fill-rule="evenodd" d="M163.4225136622954,197.7949378285786 C163.4225136622954,178.21163080105373 179.7425219172486,177.74255948746497 179.7425219172486,197.7949378285786 C179.7425219172486,217.84731616969228 179.7425219172486,246.0000012809476 179.7425219172486,246.0000012809476 L163.4225136622954,246.0000012809476 C163.4225136622954,246.0000012809476 163.4225136622954,217.37824485610355 163.4225136622954,197.7949378285786Z"/>
    <path id="path-29" opacity="1" fill-rule="evenodd" d="M165.46251469416472,124.28786760321833 C165.46251469416472,95.96006174430293 177.70252088537964,97.42090899276205 177.70252088537964,124.28786760321833 C177.70252088537964,125.08168827592526 177.70252088537964,125.89603998439507 177.70252088537964,126.73092272862777 C177.70252088537964,149.3748860508762 177.70252088537964,209.3793114270069 177.70252088537964,209.3793114270069 L165.46251469416472,209.3793114270069 C165.46251469416472,209.3793114270069 165.46251469416472,152.6156734621337 165.46251469416472,124.28786760321833Z"/>
    <rect id="rect-30" opacity="1" x="167.5025157260336" y="42.55172431461358" width="8.160004127476661" height="109.86206956182042" rx="0" ry="0"/>
    <ellipse id="ellipse-31" opacity="1" rx="16.320008254953247" ry="16.275862157306733" cx="171.5825177897723" cy="26.27586215730672"/>
    <filter id="filter-32" filterUnits="userSpaceOnUse" x="-50%" y="-50%" width="200%" height="200%">
      <feOffset in="SourceAlpha" result="shadow-1-feOffset-shadow" dx="0" dy="0"/>
      <feGaussianBlur in="shadow-1-feOffset-shadow" result="shadow-1-feGaussianBlur-shadow" stdDeviation="5"/>
      <feColorMatrix in="shadow-1-feGaussianBlur-shadow" result="shadow-1-feColorMatrix-shadow" type="matrix" values="0 0 0 0 0  0 0 0 0 0  0 0 0 0 0  0 0 0 0.5 0"/>
    </filter>
  </defs>
  <g opacity="1">
    <g opacity="1">
      <g opacity="1">
        <use xlink:href="#ellipse-1" fill="rgb(0,67,144)" fill-opacity="1"/>
      </g>
      <g opacity="1">
        <use xlink:href="#ellipse-2" fill="rgb(0,67,144)" fill-opacity="1"/>
      </g>
      <g opacity="1">
        <use xlink:href="#rect-3" fill="rgb(35,39,78)" fill-opacity="1"/>
      </g>
      <g transform="translate(326.62259621182807, 165.63793187924574) scale(-1, 1) translate(-326.62259621182807, -165.63793187924574) translate(326.62259621182807, 165.63793187924574) rotate(-41.00001466013085) translate(-326.62259621182807, -165.63793187924574)" opacity="1">
        <use xlink:href="#rect-4" fill="rgb(35,39,78)" fill-opacity="1"/>
      </g>
    </g>
    <g opacity="1">
      <g opacity="1">
        <use xlink:href="#ellipse-5" fill="rgb(0,67,144)" fill-opacity="1"/>
      </g>
      <g opacity="1">
        <use xlink:href="#ellipse-6" fill="rgb(0,67,144)" fill-opacity="1"/>
      </g>
      <g opacity="1">
        <use xlink:href="#rect-7" fill="rgb(35,39,78)" fill-opacity="1"/>
      </g>
      <g transform="translate(132.8224981842582, 174.7931043427304) scale(-1, 1) translate(-132.8224981842582, -174.7931043427304) translate(132.8224981842582, 174.7931043427304) rotate(-41.00001466013085) translate(-132.8224981842582, -174.7931043427304)" opacity="1">
        <use xlink:href="#rect-8" fill="rgb(35,39,78)" fill-opacity="1"/>
      </g>
    </g>
    <g opacity="1">
      <g opacity="1">
        <use xlink:href="#path-9" fill="rgb(255,214,6)" fill-opacity="1"/>
      </g>
      <g opacity="1">
        <use xlink:href="#path-10" fill="rgb(255,214,6)" fill-opacity="1"/>
      </g>
      <g opacity="1">
        <use xlink:href="#path-11" fill="rgb(255,214,6)" fill-opacity="1"/>
      </g>
    </g>
    <g transform="translate(351.1033115636428, 225.65516662597656) scale(-1, 1) translate(-351.1033115636428, -225.65516662597656)" opacity="1">
      <g opacity="1">
        <use xlink:href="#path-13" fill="rgb(255,214,6)" fill-opacity="1"/>
      </g>
      <g opacity="1">
        <use xlink:href="#path-14" fill="rgb(255,214,6)" fill-opacity="1"/>
      </g>
      <g opacity="1">
        <use xlink:href="#path-15" fill="rgb(255,214,6)" fill-opacity="1"/>
      </g>
    </g>
    <g transform="translate(108.34171488395532, 225.34483337402344) scale(-1, 1) translate(-108.34171488395532, -225.34483337402344)" opacity="1">
      <g opacity="1">
        <use xlink:href="#path-17" fill="rgb(255,214,6)" fill-opacity="1"/>
      </g>
      <g opacity="1">
        <use xlink:href="#path-18" fill="rgb(255,214,6)" fill-opacity="1"/>
      </g>
      <g opacity="1">
        <use xlink:href="#path-19" fill="rgb(255,214,6)" fill-opacity="1"/>
      </g>
    </g>
    <g opacity="1">
      <g opacity="1">
        <use xlink:href="#ellipse-20" fill="rgb(0,67,144)" fill-opacity="1"/>
      </g>
      <g opacity="1">
        <use xlink:href="#ellipse-21" fill="rgb(0,67,144)" fill-opacity="1"/>
      </g>
      <g opacity="1">
        <use xlink:href="#rect-22" fill="rgb(35,39,78)" fill-opacity="1"/>
      </g>
      <g transform="translate(235.8425502936509, 135.12069033429563) scale(-1, 1) translate(-235.8425502936509, -135.12069033429563) translate(235.8425502936509, 135.12069033429563) rotate(-41.00001466013085) translate(-235.8425502936509, -135.12069033429563)" opacity="1">
        <use xlink:href="#rect-23" fill="rgb(35,39,78)" fill-opacity="1"/>
      </g>
    </g>
    <g opacity="1">
      <g opacity="1">
        <use xlink:href="#path-24" fill="rgb(35,39,78)" fill-opacity="1"/>
      </g>
      <g opacity="1">
        <use xlink:href="#path-25" fill="rgb(35,39,78)" fill-opacity="1"/>
      </g>
      <g opacity="1">
        <use xlink:href="#rect-26" fill="rgb(20,62,108)" fill-opacity="1"/>
      </g>
      <g opacity="1">
        <use xlink:href="#rect-27" fill="rgb(20,62,108)" fill-opacity="1"/>
      </g>
    </g>
    <g opacity="1">
      <g opacity="1">
        <use xlink:href="#path-28" fill="rgb(35,39,78)" fill-opacity="1"/>
      </g>
      <g opacity="1">
        <use xlink:href="#path-29" fill="rgb(35,39,78)" fill-opacity="1"/>
      </g>
      <g opacity="1">
        <use xlink:href="#rect-30" fill="rgb(35,39,78)" fill-opacity="1"/>
      </g>
      <g opacity="1">
        <use xlink:href="#ellipse-31" fill="black" filter="url(#filter-32)" stroke="black" stroke-opacity="0" stroke-width="0"/>
        <use xlink:href="#ellipse-31" fill="rgb(255,255,255)" fill-opacity="1"/>
      </g>
    </g>
  </g>
</svg>